HIERARCHY
ROOT root
{
	OFFSET 0.000000 0.000000 0.000000
	CHANNELS 6 Xposition Yposition Zposition Zrotation Yrotation Xrotation
	JOINT lhip
	{
		OFFSET 0.058581 -0.082280 -0.017664
		CHANNELS 3 Zrotation Yrotation Xrotation
		JOINT lknee
		{
			OFFSET 0.043451 -0.386469 0.008037
			CHANNELS 3 Zrotation Yrotation Xrotation
			JOINT lankle
			{
				OFFSET -0.014790 -0.426874 -0.037428
				CHANNELS 3 Zrotation Yrotation Xrotation
				JOINT ltoe
				{
					OFFSET 0.041054 -0.060286 0.122042
					CHANNELS 3 Zrotation Yrotation Xrotation
					End Site
					{
						OFFSET 0.000000 0.000000 0.000000
					}
				}
			}
		}
	}
	JOINT rhip
	{
		OFFSET -0.060310 -0.090513 -0.013543
		CHANNELS 3 Zrotation Yrotation Xrotation
		JOINT rknee
		{
			OFFSET -0.043257 -0.383688 -0.004843
			CHANNELS 3 Zrotation Yrotation Xrotation
			JOINT rankle
			{
				OFFSET 0.019056 -0.420046 -0.034562
				CHANNELS 3 Zrotation Yrotation Xrotation
				JOINT rtoe
				{
					OFFSET -0.034840 -0.062106 0.130323
					CHANNELS 3 Zrotation Yrotation Xrotation
					End Site
					{
						OFFSET 0.000000 0.000000 0.000000
					}
				}
			}
		}
	}
	JOINT lowerback
	{
		OFFSET 0.004439 0.124404 -0.038385
		CHANNELS 3 Zrotation Yrotation Xrotation
		JOINT upperback
		{
			OFFSET 0.004488 0.137956 0.026820
			CHANNELS 3 Zrotation Yrotation Xrotation
			JOINT chest
			{
				OFFSET -0.002265 0.056032 0.002855
				CHANNELS 3 Zrotation Yrotation Xrotation
				JOINT lowerneck
				{
					OFFSET -0.013390 0.211636 -0.033468
					CHANNELS 3 Zrotation Yrotation Xrotation
					JOINT upperneck
					{
						OFFSET 0.010113 0.088937 0.050410
						CHANNELS 3 Zrotation Yrotation Xrotation
						End Site
						{
							OFFSET 0.000000 0.000000 0.000000
						}
					}
				}
				JOINT lclavicle
				{
					OFFSET 0.071702 0.114000 -0.018898
					CHANNELS 3 Zrotation Yrotation Xrotation
					JOINT lshoulder
					{
						OFFSET 0.122921 0.045205 -0.019046
						CHANNELS 3 Zrotation Yrotation Xrotation
						JOINT lelbow
						{
							OFFSET 0.255332 -0.015649 -0.022946
							CHANNELS 3 Zrotation Yrotation Xrotation
							JOINT lwrist
							{
								OFFSET 0.265709 0.012698 -0.007375
								CHANNELS 3 Zrotation Yrotation Xrotation
								End Site
								{
									OFFSET 0.000000 0.000000 0.000000
								}
							}
						}
					}
				}
				JOINT rclavicle
				{
					OFFSET -0.082954 0.112472 -0.023707
					CHANNELS 3 Zrotation Yrotation Xrotation
					JOINT rshoulder
					{
						OFFSET -0.113228 0.046853 -0.008472
						CHANNELS 3 Zrotation Yrotation Xrotation
						JOINT relbow
						{
							OFFSET -0.260127 -0.014369 -0.031269
							CHANNELS 3 Zrotation Yrotation Xrotation
							JOINT rwrist
							{
								OFFSET -0.269108 0.006794 -0.006027
								CHANNELS 3 Zrotation Yrotation Xrotation
								End Site
								{
									OFFSET 0.000000 0.000000 0.000000
								}
							}
						}
					}
				}
			}
		}
	}
}
MOTION
Frames: 18
Frame Time: 0.033333
1.149162 1.191088 0.993823 -86.322165 1.640356 85.164872 -0.035396 -0.488492 8.183680 -2.978144 -15.917910 3.738880 6.493012 7.114115 -15.862327 0.000000 -0.000000 0.000000 3.600233 -2.826904 8.213679 5.177553 2.888501 3.687719 1.208437 -3.266831 -11.170459 0.000000 -0.000000 0.000000 -1.331580 1.191738 3.109901 2.340931 -3.087100 4.898767 1.234487 -2.476629 5.748174 3.644242 1.340064 5.564118 1.998597 -1.600110 6.320549 -25.386061 7.823523 2.750698 -62.629866 -5.298026 7.210080 10.446151 -26.700191 5.310109 -3.474156 -0.447930 -9.722918 24.169156 -6.455952 0.365730 61.056719 1.583001 9.404224 -15.864289 25.966751 -5.048522 7.248266 -0.541950 -10.269571 
1.148449 1.190551 0.993760 -86.505412 1.672523 85.186392 -0.055951 -0.407539 8.291473 -2.899217 -15.868971 3.611468 6.402370 7.208116 -15.675903 0.000000 -0.000000 0.000000 3.597276 -2.646763 8.251023 5.198918 2.951997 3.670103 1.271360 -3.235197 -10.928169 0.000000 -0.000000 0.000000 -1.127966 1.156625 2.852824 2.175201 -2.939953 4.967423 1.093893 -2.487837 6.051322 3.619650 2.083656 4.736127 1.952538 -1.165325 6.403226 -25.237692 7.836188 2.488595 -62.755578 -5.335970 7.459574 10.429442 -26.702164 5.619603 -3.289771 -0.597757 -9.783686 24.282062 -6.534752 0.165999 61.177610 1.656633 9.694140 -15.939579 25.963847 -5.044385 7.061771 -0.339012 -10.461742 
1.147678 1.190621 0.993593 -86.711983 1.697770 85.035963 0.004470 -0.328732 8.554414 -2.955401 -15.860575 3.570974 6.417845 7.243480 -15.838857 0.000000 -0.000000 0.000000 3.585430 -2.580666 8.500955 5.231452 2.948668 3.593330 1.331448 -3.187264 -11.111372 0.000000 -0.000000 0.000000 -1.194172 1.217643 2.822248 2.260786 -2.966416 5.111479 1.144676 -2.454741 5.874929 3.724506 1.086030 5.918654 2.003210 -1.745119 6.321423 -25.189251 7.689024 2.830074 -62.936804 -5.362005 7.349483 10.666333 -26.766397 5.499381 -3.563597 -0.457480 -9.945965 23.966494 -6.459265 0.383729 61.501886 1.631160 9.488453 -16.021394 26.058633 -4.902990 7.248240 -0.281886 -10.530687 
1.147302 1.190328 0.993610 -86.861802 1.765210 84.950670 0.070886 -0.226637 8.715890 -2.943309 -15.839679 3.480127 6.377831 7.237398 -15.907397 0.000000 -0.000000 0.000000 3.648608 -2.370036 8.792824 5.213084 2.855660 3.241334 1.403628 -3.155139 -10.983267 0.000000 -0.000000 0.000000 -1.121880 1.151431 2.833800 2.253061 -2.970754 5.146247 1.141389 -2.418639 5.800938 3.837952 0.771395 6.227219 1.996298 -1.837349 6.375215 -25.304442 7.774250 2.872083 -62.952608 -5.398955 7.267872 10.698995 -26.917630 5.512228 -3.882590 -0.398061 -9.895160 23.822391 -6.479360 0.382482 61.668916 1.629895 9.438289 -16.073216 26.062122 -4.890622 7.385490 -0.254399 -10.539119 
1.147268 1.190179 0.993534 -86.988258 1.748744 84.931169 0.034262 -0.206794 8.735814 -2.941007 -15.705748 3.492813 6.573703 7.334088 -15.727660 0.000000 -0.000000 0.000000 3.547526 -2.583931 8.742122 5.287600 3.150521 3.407820 1.209470 -3.021135 -10.781419 0.000000 -0.000000 0.000000 -1.118849 1.213193 2.752251 2.232259 -2.987289 5.207169 1.101469 -2.444626 5.806626 3.729993 0.742507 6.313801 1.837779 -1.750908 6.466459 -25.268673 7.768451 2.897245 -62.956734 -5.451753 7.260055 10.672568 -26.873353 5.587728 -3.888671 -0.375467 -10.047218 23.796002 -6.480345 0.489519 61.699482 1.684278 9.475459 -16.034422 26.137576 -4.795980 7.378861 -0.445213 -10.524866 
1.147327 1.190153 0.993471 -87.002762 1.726270 85.002514 0.015715 -0.225253 8.575915 -3.018040 -15.702868 3.649950 6.547306 7.305880 -15.915566 0.000000 -0.000000 0.000000 3.596749 -2.588793 8.502459 5.160050 3.084891 3.699173 1.259020 -3.060434 -11.170018 0.000000 -0.000000 0.000000 -1.234371 1.179306 2.720335 2.233123 -3.019180 5.102700 1.121161 -2.464480 5.908990 3.748858 0.965367 6.028975 1.921346 -1.721552 6.435210 -25.151114 7.863791 2.779869 -63.060853 -5.426222 7.308069 10.596957 -26.829041 5.699832 -3.747886 -0.352435 -10.004981 23.912979 -6.520057 0.395711 61.585686 1.636914 9.567003 -15.933727 26.122444 -4.675805 7.346166 -0.475305 -10.520801 
1.147300 1.190095 0.993511 -87.031918 1.791483 84.928168 0.114062 -0.232565 8.663328 -3.083924 -15.663847 3.659519 6.499600 7.266399 -15.980623 0.000000 -0.000000 0.000000 3.560917 -2.586654 8.752531 5.289414 3.115923 3.416961 1.425784 -3.037520 -11.033284 0.000000 -0.000000 0.000000 -1.212697 1.163028 2.822587 2.222771 -3.088346 5.114215 1.150846 -2.440453 5.834820 3.685727 1.093333 6.175960 1.975734 -1.527616 6.334867 -25.054382 7.784283 2.902196 -63.182134 -5.351898 7.281385 10.678237 -26.892607 5.685329 -3.816717 -0.353975 -10.206339 23.756415 -6.475859 0.559076 61.689493 1.527703 9.522681 -15.938296 26.267331 -4.626449 7.428174 -0.518926 -10.677942 
1.147282 1.189925 0.993310 -87.070600 1.762425 85.006060 0.054218 -0.169818 8.486880 -3.064237 -15.611366 3.839846 6.670723 7.315592 -15.728642 0.000000 -0.000000 0.000000 3.616538 -2.665254 8.490428 5.121451 3.200944 3.770373 1.124628 -2.904991 -10.981104 0.000000 -0.000000 0.000000 -1.269207 1.159602 2.740273 2.246903 -3.119409 5.027595 1.162746 -2.509994 5.848088 3.595403 0.744579 6.373170 1.751282 -1.572184 6.274441 -25.085561 7.870228 3.008471 -63.129533 -5.288059 7.252361 10.674483 -26.999940 5.745352 -3.668679 -0.310953 -10.285258 23.726562 -6.559541 0.622368 61.639190 1.483988 9.456571 -15.833786 26.439880 -4.577920 7.343930 -0.549170 -10.663054 
1.146920 1.189943 0.993452 -86.956666 1.861760 84.829039 0.211411 -0.145637 8.718882 -3.125863 -15.795780 3.783843 6.490085 7.234000 -16.093491 0.000000 -0.000000 0.000000 3.673380 -2.533535 8.971159 5.245148 3.081712 3.246567 1.321650 -3.134560 -11.007470 0.000000 -0.000000 0.000000 -1.244773 1.094041 2.903678 2.290357 -3.198499 5.037393 1.206155 -2.550305 5.827468 3.866700 0.124162 6.299538 1.815474 -2.081780 6.351767 -25.169022 7.820564 3.132256 -63.091331 -5.303185 7.191716 10.768318 -26.939358 5.680089 -3.696171 -0.319368 -10.348252 23.661373 -6.379368 0.662301 61.637876 1.383703 9.366012 -15.868045 26.357356 -4.692316 7.312054 -0.592510 -10.768685 
1.147228 1.190063 0.993345 -86.988252 1.809717 84.840899 0.162193 -0.159328 8.633048 -3.133226 -15.708095 3.904047 6.628955 7.308828 -15.885032 0.000000 -0.000000 0.000000 3.837045 -2.322259 8.628872 4.946068 2.833342 3.846749 1.341396 -3.234711 -11.399573 0.000000 -0.000000 0.000000 -1.367120 1.070129 2.990093 2.301959 -3.129315 4.905627 1.217992 -2.575439 5.958067 3.971864 0.148051 5.966224 1.825943 -2.202419 6.460765 -25.182712 7.910296 2.970708 -62.991096 -5.328051 7.173449 10.697285 -26.821300 5.657447 -3.782707 -0.338335 -10.190424 23.675285 -6.472687 0.505688 61.666367 1.334637 9.427386 -15.857150 26.147496 -4.597816 7.382932 -0.462794 -10.593150 
1.147064 1.189869 0.993344 -86.986000 1.813225 84.811074 0.127848 -0.199849 8.735810 -3.109216 -15.761104 3.782944 6.598901 7.344820 -16.170629 0.000000 -0.000000 0.000000 3.814390 -2.479515 8.719490 4.917040 2.985923 3.769253 1.377800 -3.226622 -11.384193 0.000000 -0.000000 0.000000 -1.357848 1.150445 2.898175 2.279669 -3.121806 4.999130 1.194916 -2.621258 5.993831 3.852815 0.408295 5.971556 1.872547 -2.042095 6.396908 -25.178748 7.822078 2.974893 -62.964959 -5.332271 7.177562 10.726110 -26.681302 5.649008 -3.731009 -0.306911 -10.090008 23.611533 -6.519097 0.469253 61.744789 1.254846 9.406840 -15.846385 25.881903 -4.503911 7.471879 -0.658392 -10.584488 
1.147055 1.189855 0.993294 -86.960438 1.797180 84.763772 0.169220 -0.062702 8.736681 -3.184981 -15.841267 3.861398 6.585730 7.269716 -16.168545 0.000000 -0.000000 0.000000 3.811023 -2.505374 8.757724 4.884525 3.002199 3.817035 1.323115 -3.208680 -11.395455 0.000000 -0.000000 0.000000 -1.405948 1.149019 2.912957 2.292433 -3.130471 4.993739 1.196459 -2.635450 5.965483 3.853291 0.147034 6.387067 1.874408 -2.146132 6.419269 -25.154155 7.834520 3.053463 -62.951385 -5.356267 7.101037 10.685579 -26.510417 5.689658 -3.810243 -0.272847 -10.076816 23.606685 -6.590363 0.462748 61.758379 1.283511 9.310940 -15.772162 25.687537 -4.376935 7.512286 -0.623438 -10.411028 
1.147045 1.189862 0.993327 -86.970632 1.826263 84.740199 0.158501 -0.119274 8.759382 -3.122185 -15.808957 3.879795 6.638482 7.379800 -15.984897 0.000000 -0.000000 0.000000 3.849628 -2.545610 8.746889 4.872700 3.073340 3.905404 1.383301 -3.220407 -11.504020 0.000000 -0.000000 0.000000 -1.402922 1.122384 2.922371 2.224983 -3.118026 4.999476 1.172466 -2.602834 6.048219 3.817320 0.700856 6.166446 1.929445 -1.751218 6.466618 -25.097366 7.866260 2.969794 -62.927834 -5.285891 7.140510 10.715899 -26.470008 5.710811 -3.730399 -0.306967 -10.043431 23.759931 -6.635367 0.397150 61.659556 1.341828 9.371825 -15.706975 25.513735 -4.394137 7.541080 -0.590803 -10.398937 
1.147098 1.189831 0.993370 -86.944826 1.848308 84.695621 0.190331 -0.119330 8.811589 -3.150153 -15.879651 3.855445 6.593527 7.342333 -16.307583 0.000000 -0.000000 0.000000 3.874283 -2.548713 8.866252 4.857230 3.090876 3.735030 1.415543 -3.310236 -11.369421 0.000000 -0.000000 0.000000 -1.437306 1.173428 2.901174 2.240401 -3.071758 5.029765 1.174995 -2.654359 6.100682 3.807169 0.864727 6.082929 1.930740 -1.645443 6.614328 -25.084843 7.819181 2.987844 -62.930441 -5.294520 7.148571 10.759108 -26.427784 5.665247 -3.676027 -0.361470 -10.112395 23.791765 -6.671589 0.351210 61.639920 1.326478 9.446914 -15.696889 25.474935 -4.368009 7.529594 -0.597219 -10.432495 
1.147068 1.189804 0.993305 -86.932363 1.878554 84.607514 0.273333 0.010865 8.906192 -3.185759 -15.909285 3.881552 6.607678 7.275303 -16.087270 0.000000 -0.000000 0.000000 3.895235 -2.588604 8.984358 4.860950 3.151019 3.731283 1.354929 -3.267473 -11.438029 0.000000 -0.000000 0.000000 -1.478697 1.218710 2.954298 2.296256 -3.085748 5.110269 1.225687 -2.633912 6.013576 3.820381 0.483321 6.362334 1.947827 -1.836017 6.538935 -25.032715 7.733478 3.115051 -63.003215 -5.279379 7.100992 10.740828 -26.355878 5.664538 -3.754888 -0.371907 -10.306009 23.661023 -6.671856 0.492645 61.694029 1.291111 9.358049 -15.671403 25.619546 -4.300032 7.583991 -0.669855 -10.546700 
1.146989 1.189727 0.993273 -86.956332 1.900591 84.520132 0.281652 0.038836 9.013414 -3.166114 -15.928084 3.833918 6.652683 7.239497 -16.308751 0.000000 -0.000000 0.000000 3.863702 -2.689823 9.153466 4.891845 3.215537 3.583252 1.348572 -3.160343 -11.310870 0.000000 -0.000000 0.000000 -1.449113 1.279082 3.043022 2.287567 -3.092258 5.074897 1.229996 -2.648663 5.957661 3.853269 0.260242 6.673357 1.956122 -1.858671 6.498442 -25.044197 7.701633 3.273418 -62.993366 -5.289372 7.023787 10.753336 -26.308203 5.646351 -3.754061 -0.329395 -10.304973 23.627472 -6.576562 0.640917 61.735241 1.289676 9.271919 -15.732571 25.535919 -4.324015 7.592333 -0.676676 -10.550650 
1.147071 1.189765 0.993219 -86.994662 1.920302 84.542446 0.301704 0.024412 8.990738 -3.153013 -15.842953 3.841745 6.669997 7.282269 -16.101945 0.000000 -0.000000 0.000000 3.890775 -2.747624 9.099728 4.874342 3.288931 3.628199 1.331935 -3.196698 -11.401715 0.000000 -0.000000 0.000000 -1.443904 1.300050 3.026342 2.264380 -3.063418 5.064672 1.236019 -2.614128 5.977291 3.830586 0.444238 6.536238 1.984154 -1.728264 6.535383 -25.017982 7.737283 3.184278 -62.970425 -5.276749 7.034490 10.629674 -26.217685 5.698404 -3.758219 -0.367759 -10.307391 23.691428 -6.598605 0.593864 61.687048 1.272336 9.316422 -15.687529 25.549533 -4.297393 7.567637 -0.675541 -10.512480 
1.147078 1.189794 0.993292 -87.052307 1.922686 84.512259 0.287729 -0.005820 9.045319 -3.164267 -15.802693 3.785994 6.644714 7.346001 -16.241051 0.000000 -0.000000 0.000000 3.844593 -2.695336 9.126953 4.963745 3.306179 3.592896 1.294859 -3.196994 -11.201701 0.000000 -0.000000 0.000000 -1.415813 1.326776 3.032298 2.222375 -3.016775 5.051158 1.187083 -2.604153 6.017318 3.795946 0.818613 6.329500 2.008661 -1.500877 6.502178 -25.114857 7.755605 3.089555 -62.815086 -5.270748 7.010804 10.553320 -26.024988 5.645764 -3.837750 -0.298535 -10.255548 23.865080 -6.581714 0.553350 61.586310 1.342520 9.355951 -15.749813 25.412754 -4.502267 7.540512 -0.707489 -10.546920 
